<?xml version="1.0" encoding="utf-8"?>
<!-- Generator: Adobe Illustrator 26.0.1, SVG Export Plug-In . SVG Version: 6.00 Build 0)  -->
<svg version="1.1" id="Layer_1" xmlns="http://www.w3.org/2000/svg" xmlns:xlink="http://www.w3.org/1999/xlink" x="0px" y="0px"
	 viewBox="0 0 566.2 832.6" style="enable-background:new 0 0 566.2 832.6;" xml:space="preserve">
<style type="text/css">
	.st0{fill:#BCBBC6;}
	.st1{fill:#BD0D07;}
	.st2{fill:#FFFFFF;}
	#MEZZANINE_LEFT_REAR:hover .st0 {fill:#69D2E7;}
	#MEZZANINE_LEFT_FRONT:hover .st0 {fill:#A7DBD8;}
	#MEZZANINE_RIGHT_REAR:hover .st0 {fill:#F38630;}
	#MEZZANINE_RIGHT_FRONT:hover .st0 {fill:#FA6900;}
	#MEZZANINE_CENTER:hover .st0 {fill:#E0E4CC;}

	#ORCHESTRA_LEFT_REAR:hover .st0 {fill:#69D2E7;}
	#ORCHESTRA_LEFT_FRONT:hover .st0 {fill:#A7DBD8;}
	#ORCHESTRA_RIGHT_REAR:hover .st0 {fill:#F38630;}
	#ORCHESTRA_RIGHT_FRONT:hover .st0 {fill:#FA6900;}
	#ORCHESTRA_CENTER:hover .st0 {fill:#E0E4CC;}
	.section {cursor: pointer;}
</style>
<g id="MEZZANINE" class="section">
	<g id="MEZZANINE_LEFT">
		<g id="MEZZANINE_LEFT_REAR">
			<path class="st0" d="M6.6,636.9c0,0,81.3,49,165.6,65v110c0,0-51.6,0-114.6-28l-11-23l0,0c-0.2-0.1-2.9-1-30.6-12.1v-43.5
				l9.6-34.4c0,0-7-5.3-19-13.6V636.9z"/>
		</g>
		<g id="MEZZANINE_LEFT_FRONT">
			<path class="st0" d="M63.3,586.5c-1.8,1.3-35.5-63-35.4-63.3v-38C18.5,480,9.2,474.5,0,468.8v79c9.8,29.5,19.7,58.7,29.8,87.5
				c44.7,24.3,92.7,42,142.5,52.6v-65.4c-18.4-4.2-36.7-9.4-54.6-15.4C90.5,598.2,64,586.1,63.3,586.5z"/>
		</g>
	</g>
	<g id="MEZZANINE_RIGHT">
		<g id="MEZZANINE_RIGHT_REAR">
			<path class="st0" d="M566.2,636.9c0,0-81.3,49-165.6,65v110c0,0,51.6,0,114.6-28l11-23l0,0c0.2-0.1,2.9-1,30.6-12.1v-43.5
				l-9.6-34.4c0,0,7-5.3,19-13.6V636.9z"/>
		</g>
		<g id="MEZZANINE_RIGHT_FRONT">
			<path class="st0" d="M538.4,485.2v38c0.1,0.4-33.6,64.7-35.4,63.3c-0.8-0.5-27.2,11.7-54.4,20.5c-17.9,6.1-36.1,11.2-54.6,15.4
				v65.4c49.8-10.6,97.8-28.3,142.5-52.6c10.1-28.8,20-58,29.8-87.5v-79C557.1,474.5,547.8,480,538.4,485.2z"/>
		</g>
	</g>
	<g id="MEZZANINE_CENTER">
		<g id="MEZZANINE_CENTER_REAR">
			<path class="st0" d="M190.8,766.5c4.8,15.5,9.6,45,14.4,60.3c51.8,7.7,104.3,7.7,156.1,0c4.7-16,9.5-46.1,14.2-62.3v-33
				c-61.1,10.8-123.6,10.8-184.7,0L190.8,766.5z"/>
		</g>
		<g id="MEZZANINE_CENTER_FRONT">
			<path class="st0" d="M190.8,675c4.8,15.5,9.6,31,14.4,46.3c51.7,7.7,104.4,7.7,156.1,0c4.7-16,9.5-32.1,14.2-48.3v-47
				c-61.1,10.8-123.6,10.8-184.7,0L190.8,675z"/>
		</g>
	</g>
</g>
<g id="ORCHESTRA" class="section">
	<g id="ORCHESTRA_LEFT">
		<g id="ORCHESTRA_LEFT_REAR">
			<path class="st0" d="M10,414.3c9.3,5.9,18.8,11.4,28.4,16.6v11c11.6,6.3,23.4,12.2,35.4,17.5v-11c2.4,1.1,4.8,2.1,7.2,3.2v11
				c12,5.2,24.2,9.9,36.5,14.1v-11c7.1,2.4,14.2,4.7,21.4,6.8v11c12.4,3.7,24.9,6.8,37.6,9.5v-161C117.4,319.3,61,296.4,10,264.2
				L10,414.3z"/>
		</g>
		<g id="ORCHESTRA_LEFT_FRONT">
			<path class="st0" d="M179.6,73.6v243c0,0-107-25.7-170-72c0,0,33-112,144-180C153.6,64.6,163.1,70.4,179.6,73.6z"/>
		</g>
	</g>
	<g id="ORCHESTRA_RIGHT">
		<g id="ORCHESTRA_RIGHT_REAR">
			<path class="st0" d="M388.9,332v161c12.6-2.7,25.1-5.8,37.6-9.5v-11c7.2-2.1,14.3-4.4,21.4-6.8v11c12.3-4.2,24.4-8.9,36.5-14.1
				v-11c2.4-1,4.8-2.1,7.2-3.2v11c12-5.3,23.7-11.2,35.4-17.5v-11c9.6-5.2,19-10.8,28.4-16.6v-150
				C504.2,296.4,447.9,319.4,388.9,332z"/>
		</g>
		<g id="ORCHESTRA_RIGHT_FRONT">
			<path class="st0" d="M386.6,73.6v243c0,0,110-22.7,170-72c0,0-33-112-144-180C412.6,64.6,404.1,70.4,386.6,73.6z"/>
		</g>
	</g>
	<g id="ORCHESTRA_CENTER">
		<g id="ORCHESTRA_CENTER_REAR">
			<path class="st0" d="M363.6,364c-52,10.9-106,10.9-160,0v17c-3.4-0.5-6.9-1.1-10.3-1.7v92c3.4,0.6,6.9,1.2,10.3,1.7v17
				c53,8.4,107,8.4,160,0v-17c3.4-0.5,6.9-1.1,10.3-1.7v-92c-3.4,0.6-6.9,1.2-10.3,1.7V364z"/>
		</g>
		<g id="ORCHESTRA_CENTER_FRONT">
			<path class="st0" d="M369.6,347.9c-57.2,13.7-116.8,13.7-174,0v-270c57.2,13.7,116.8,13.7,174,0V347.9z"/>
		</g>
	</g>
</g>
<g id="STAGE">
	<g id="STAGE-2">
		<rect x="156.9" class="st1" width="255.3" height="31.9"/>
	</g>
	<path class="st2" d="M269.9,18.3c0,0.4,0.2,0.9,0.5,1.2c0.4,0.3,0.9,0.4,1.3,0.4c0.2,0,0.5,0,0.7-0.1c0.2,0,0.3-0.1,0.5-0.2
		c0.1-0.1,0.2-0.2,0.3-0.4c0.1-0.1,0.1-0.3,0.1-0.4c0-0.2-0.1-0.5-0.3-0.6c-0.2-0.2-0.6-0.4-0.9-0.4l-1.1-0.2
		c-0.4-0.1-0.8-0.2-1.2-0.3c-0.3-0.1-0.6-0.3-0.9-0.5c-0.2-0.2-0.4-0.5-0.5-0.8c-0.1-0.3-0.2-0.7-0.2-1.1c0-0.4,0.1-0.7,0.2-1.1
		c0.2-0.3,0.4-0.6,0.7-0.8c0.3-0.2,0.7-0.4,1-0.5c0.4-0.1,0.9-0.2,1.4-0.2c0.5,0,1.1,0.1,1.6,0.2c0.4,0.1,0.7,0.3,1,0.6
		c0.3,0.2,0.4,0.5,0.6,0.8c0.1,0.3,0.2,0.7,0.2,1l-1.7,0.2c-0.1-0.4-0.2-0.7-0.5-1c-0.3-0.2-0.7-0.3-1.1-0.3c-0.3,0-0.5,0-0.8,0.1
		c-0.2,0-0.3,0.1-0.5,0.2c-0.1,0.1-0.2,0.2-0.2,0.3c-0.1,0.1-0.1,0.2-0.1,0.3c0,0.3,0.1,0.5,0.3,0.7c0.3,0.2,0.6,0.3,0.9,0.4
		l1.2,0.2c0.7,0.1,1.4,0.4,2,0.9c0.5,0.5,0.7,1.1,0.6,1.8c0,0.3-0.1,0.7-0.2,1c-0.1,0.3-0.4,0.6-0.6,0.8c-0.3,0.2-0.6,0.4-1,0.5
		c-0.5,0.1-1,0.2-1.5,0.2c-1,0.1-1.9-0.2-2.7-0.8c-0.7-0.6-1-1.4-1-2.3L269.9,18.3z"/>
	<path class="st2" d="M276.7,16.1h-1v-1.3h1v-1.7h1.7v1.7h1.4v1.3h-1.4V19c0,0.2,0,0.5,0.2,0.7c0.1,0.1,0.3,0.2,0.5,0.2h0.3
		c0.1,0,0.2,0,0.3-0.1L280,21c-0.2,0.1-0.4,0.1-0.7,0.2c-0.2,0-0.4,0-0.6,0c-0.6,0-1.1-0.1-1.5-0.5c-0.4-0.5-0.6-1.1-0.5-1.7
		L276.7,16.1z"/>
	<path class="st2" d="M284.6,20.3c-0.2,0.3-0.5,0.5-0.8,0.7c-0.4,0.2-0.8,0.3-1.2,0.3c-0.3,0-0.5,0-0.8-0.1
		c-0.2-0.1-0.5-0.2-0.7-0.3c-0.2-0.2-0.3-0.4-0.5-0.6c-0.1-0.3-0.2-0.6-0.2-0.8c0-0.4,0.1-0.7,0.3-1.1c0.2-0.3,0.5-0.5,0.8-0.6
		c0.3-0.2,0.7-0.3,1-0.3c0.4-0.1,0.8-0.1,1.2-0.1h0.8v-0.3c0-0.3-0.1-0.6-0.3-0.8c-0.2-0.1-0.5-0.2-0.8-0.2c-0.7,0-1,0.3-1.1,0.8
		l-1.5-0.1c0.1-0.6,0.4-1.1,0.9-1.4c0.6-0.3,1.2-0.5,1.9-0.4c0.4,0,0.8,0,1.2,0.2c0.3,0.1,0.6,0.3,0.8,0.5c0.2,0.2,0.4,0.5,0.5,0.8
		c0.1,0.3,0.1,0.7,0.1,1v4h-1.6L284.6,20.3z M284.6,18.3h-0.8c-0.3,0-0.6,0-0.9,0.1c-0.2,0-0.3,0.1-0.5,0.2
		c-0.1,0.1-0.2,0.2-0.2,0.3c0,0.1-0.1,0.3-0.1,0.4c0,0.2,0.1,0.4,0.2,0.5c0.2,0.1,0.4,0.2,0.6,0.2c0.4,0,0.7-0.1,1.1-0.3
		c0.2-0.1,0.3-0.3,0.4-0.4c0.1-0.2,0.2-0.4,0.1-0.6L284.6,18.3z"/>
	<path class="st2" d="M289.4,21.5c0,0.1,0.1,0.3,0.1,0.4c0.1,0.1,0.1,0.2,0.2,0.2c0.1,0.1,0.2,0.1,0.4,0.1c0.2,0,0.3,0,0.5,0
		c0.3,0,0.5,0,0.7-0.2c0.2-0.1,0.3-0.3,0.4-0.5c0.1-0.2,0.1-0.4,0.1-0.7c0-0.2,0-0.5,0-0.8v-0.2c-0.2,0.3-0.5,0.5-0.8,0.7
		c-0.3,0.2-0.7,0.2-1.1,0.2c-0.8,0.1-1.5-0.3-2-0.8c-0.5-0.7-0.7-1.5-0.6-2.3c0-0.4,0.1-0.9,0.2-1.3c0.1-0.4,0.3-0.7,0.5-1
		c0.2-0.3,0.5-0.5,0.9-0.7c0.4-0.2,0.7-0.2,1.1-0.2c0.3,0,0.7,0.1,1,0.2c0.4,0.1,0.7,0.4,0.9,0.7v-0.7h1.6v5.4c0,0.5,0,0.9-0.2,1.4
		c-0.1,0.4-0.3,0.7-0.5,1c-0.2,0.3-0.6,0.5-0.9,0.7c-0.4,0.2-0.9,0.2-1.4,0.2c-0.4,0-0.9,0-1.3-0.1c-0.3-0.1-0.6-0.2-0.9-0.4
		c-0.2-0.2-0.4-0.4-0.5-0.7c-0.1-0.3-0.2-0.6-0.2-0.9L289.4,21.5z M291.9,17.7c0-0.3,0-0.6-0.1-0.9c-0.1-0.2-0.2-0.4-0.3-0.5
		c-0.1-0.1-0.3-0.2-0.5-0.2c-0.2,0-0.3-0.1-0.5-0.1c-0.2,0-0.4,0-0.5,0.1c-0.2,0.1-0.3,0.2-0.4,0.3c-0.1,0.2-0.2,0.3-0.3,0.5
		c-0.1,0.3-0.1,0.5-0.1,0.8c0,0.5,0.1,1,0.4,1.4c0.2,0.3,0.6,0.4,0.9,0.4c0.2,0,0.4,0,0.6-0.1c0.2-0.1,0.3-0.2,0.5-0.3
		c0.1-0.1,0.2-0.3,0.3-0.5c0.1-0.3,0.1-0.5,0.1-0.8L291.9,17.7z"/>
	<path class="st2" d="M300.8,19.1c-0.1,0.6-0.4,1.2-0.9,1.6c-0.6,0.4-1.3,0.6-2,0.5c-0.9,0.1-1.7-0.2-2.4-0.9
		c-0.6-0.7-0.8-1.6-0.8-2.5c0-0.5,0.1-1,0.2-1.4c0.1-0.4,0.4-0.7,0.6-1c0.3-0.3,0.6-0.5,1-0.7c0.4-0.2,0.8-0.2,1.3-0.2
		c0.8-0.1,1.6,0.2,2.1,0.7c0.5,0.6,0.8,1.4,0.7,2.2v0.8h-4.4c0,0.4,0.1,0.8,0.4,1.2c0.3,0.3,0.7,0.5,1.1,0.4
		c0.5,0.1,1.1-0.3,1.2-0.8c0,0,0,0,0,0L300.8,19.1z M299.3,17.2c0-0.4-0.1-0.7-0.3-1c-0.3-0.3-0.6-0.4-1-0.4c-0.2,0-0.4,0-0.6,0.1
		c-0.2,0.1-0.3,0.2-0.4,0.3c-0.1,0.1-0.2,0.3-0.3,0.4c-0.1,0.2-0.1,0.3-0.1,0.5L299.3,17.2z"/>
</g>
</svg>
